<?xml version="1.0" encoding="utf-8"?>
<!-- Generator: Adobe Illustrator 19.1.0, SVG Export Plug-In . SVG Version: 6.00 Build 0)  -->
<svg version="1.1" id="Layer_1" xmlns="http://www.w3.org/2000/svg" xmlns:xlink="http://www.w3.org/1999/xlink" x="0px" y="0px"
	 viewBox="-149 151 200 200" style="enable-background:new -149 151 200 200;" xml:space="preserve">
<style type="text/css">
	.st0{fill:#545454;}
</style>
<g>
	<path class="st0" d="M-49,178.3L23.7,251L-49,323.7l-72.7-72.7L-49,178.3 M-49,151l-13.6,13.6l-72.7,72.7L-149,251l13.6,13.6
		l72.7,72.7L-49,351l13.6-13.6l72.7-72.7L51,251l-13.6-13.6l-72.7-72.7L-49,151L-49,151z"/>
	
		<rect x="-64.1" y="261" transform="matrix(-0.707 -0.7072 0.7072 -0.707 -278.8864 438.9678)" class="st0" width="31.2" height="32.6"/>
	<polygon class="st0" points="-49,201.9 -98.1,251 -81.7,267.4 -49,234.6 -16.3,267.4 0.1,251 	"/>
</g>
</svg>
