<?xml version="1.0" encoding="utf-8"?>
<!-- Generator: Adobe Illustrator 16.0.0, SVG Export Plug-In . SVG Version: 6.00 Build 0)  -->
<!DOCTYPE svg PUBLIC "-//W3C//DTD SVG 1.1//EN" "http://www.w3.org/Graphics/SVG/1.1/DTD/svg11.dtd">
<svg version="1.1" id="Layer_1" xmlns="http://www.w3.org/2000/svg" xmlns:xlink="http://www.w3.org/1999/xlink" x="0px" y="0px"
	 width="200px" height="200px" viewBox="0 0 200 200" enable-background="new 0 0 200 200" xml:space="preserve">
<g>
	<path fill="#FFFFFF" d="M99.999,27.278l72.731,72.72L99.999,172.73L27.274,100L99.999,27.278 M99.999,0L86.364,13.639
		l-72.727,72.73L0,100l13.639,13.641l72.725,72.717L99.999,200l13.642-13.641l72.729-72.721L200,100l-13.631-13.631l-72.729-72.73
		L99.999,0L99.999,0z"/>
	
		<rect x="84.877" y="109.957" transform="matrix(-0.707 -0.7072 0.7072 -0.707 82.2405 286.5825)" fill="#FFFFFF" width="31.223" height="32.594"/>
	<polygon fill="#FFFFFF" points="99.999,50.911 50.909,100 67.279,116.359 99.999,83.64 132.729,116.359 149.09,99.998 	"/>
</g>
</svg>
