<?xml version="1.0" encoding="UTF-8" standalone="no"?>
<svg width="500px" height="500px" viewBox="0 0 500 500" version="1.1" xmlns="http://www.w3.org/2000/svg" xmlns:xlink="http://www.w3.org/1999/xlink" style="background: transparent;">
    <!-- Generator: Sketch 40 (33762) - http://www.bohemiancoding.com/sketch -->
    <title>layout</title>
    <desc>Created with Sketch.</desc>
    <defs></defs>
    <g id="Icons" stroke="none" stroke-width="1" fill="none" fill-rule="evenodd">
        <g id="layout">
            <g id="Group-2" transform="translate(20.000000, 20.000000)" fill="#FFFFFF">
                <g id="monitor" transform="translate(0.000000, 30.000000)">
                    <path d="M2.31818182,1.33226763e-15 L14.6818182,1.33226763e-15 C15.3216364,1.33226763e-15 15.8679545,0.21975 16.3207727,0.65925 C16.7735909,1.09875 17,1.629 17,2.25 L17,9.75 C17,10.371 16.7735909,10.90125 16.3207727,11.34075 C15.8679545,11.78025 15.3216364,12 14.6818182,12 L9.27272727,12 L9.27272727,13.5 L11.5909091,13.5 C11.8041818,13.5 11.9862879,13.57325 12.1372273,13.71975 C12.2881667,13.86625 12.3636364,14.043 12.3636364,14.25 C12.3636364,14.457 12.2881667,14.63375 12.1372273,14.78025 C11.9862879,14.92675 11.8041818,15 11.5909091,15 L5.40909091,15 C5.19581818,15 5.01371212,14.92675 4.86277273,14.78025 C4.71183333,14.63375 4.63636364,14.457 4.63636364,14.25 C4.63636364,14.043 4.71183333,13.86625 4.86277273,13.71975 C5.01371212,13.57325 5.19581818,13.5 5.40909091,13.5 L7.72727273,13.5 L7.72727273,12 L2.31818182,12 C1.67836364,12 1.13204545,11.78025 0.679227273,11.34075 C0.226409091,10.90125 0,10.371 0,9.75 L0,2.25 C0,1.629 0.226409091,1.09875 0.679227273,0.65925 C1.13204545,0.21975 1.67836364,0 2.31818182,0 L2.31818182,1.33226763e-15 Z M14.6818182,1.5 L2.31818182,1.5 C2.10490909,1.5 1.92280303,1.57325 1.77186364,1.71975 C1.62092424,1.86625 1.54545455,2.043 1.54545455,2.25 L1.54545455,9.75 C1.54545455,9.957 1.62092424,10.13375 1.77186364,10.28025 C1.92280303,10.42675 2.10490909,10.5 2.31818182,10.5 L14.6818182,10.5 C14.8950909,10.5 15.077197,10.42675 15.2281364,10.28025 C15.3790758,10.13375 15.4545455,9.957 15.4545455,9.75 L15.4545455,2.25 C15.4545455,2.043 15.3790758,1.86625 15.2281364,1.71975 C15.077197,1.57325 14.8950909,1.5 14.6818182,1.5 L14.6818182,1.5 Z" id="Shape"></path>
                </g>
                <path d="M2.04545455,60 L4.77272727,60 C5.33727273,60 5.81931818,60.1997727 6.21886364,60.5993182 C6.61840909,60.9988636 6.81818182,61.4809091 6.81818182,62.0454545 L6.81818182,72.9545455 C6.81818182,73.5190909 6.61840909,74.0011364 6.21886364,74.4006818 C5.81931818,74.8002273 5.33727273,75 4.77272727,75 L2.04545455,75 C1.48090909,75 0.998863636,74.8002273 0.599318182,74.4006818 C0.199772727,74.0011364 0,73.5190909 0,72.9545455 L0,62.0454545 C0,61.4809091 0.199772727,60.9988636 0.599318182,60.5993182 C0.998863636,60.1997727 1.48090909,60 2.04545455,60 L2.04545455,60 Z M4.77272727,61.3636364 L2.04545455,61.3636364 C1.85727273,61.3636364 1.69659091,61.4302273 1.56340909,61.5634091 C1.43022727,61.6965909 1.36363636,61.8572727 1.36363636,62.0454545 L1.36363636,72.9545455 C1.36363636,73.1427273 1.43022727,73.3034091 1.56340909,73.4365909 C1.69659091,73.5697727 1.85727273,73.6363636 2.04545455,73.6363636 L4.77272727,73.6363636 C4.96090909,73.6363636 5.12159091,73.5697727 5.25477273,73.4365909 C5.38795455,73.3034091 5.45454545,73.1427273 5.45454545,72.9545455 L5.45454545,62.0454545 C5.45454545,61.8572727 5.38795455,61.6965909 5.25477273,61.5634091 C5.12159091,61.4302273 4.96090909,61.3636364 4.77272727,61.3636364 L4.77272727,61.3636364 Z M10.2272727,68.1818182 L12.9545455,68.1818182 C13.5190909,68.1818182 14.0011364,68.3815909 14.4006818,68.7811364 C14.8002273,69.1806818 15,69.6627273 15,70.2272727 L15,72.9545455 C15,73.5190909 14.8002273,74.0011364 14.4006818,74.4006818 C14.0011364,74.8002273 13.5190909,75 12.9545455,75 L10.2272727,75 C9.66272727,75 9.18068182,74.8002273 8.78113636,74.4006818 C8.38159091,74.0011364 8.18181818,73.5190909 8.18181818,72.9545455 L8.18181818,70.2272727 C8.18181818,69.6627273 8.38159091,69.1806818 8.78113636,68.7811364 C9.18068182,68.3815909 9.66272727,68.1818182 10.2272727,68.1818182 L10.2272727,68.1818182 Z M12.9545455,69.5454545 L10.2272727,69.5454545 C10.0390909,69.5454545 9.87840909,69.6120455 9.74522727,69.7452273 C9.61204545,69.8784091 9.54545455,70.0390909 9.54545455,70.2272727 L9.54545455,72.9545455 C9.54545455,73.1427273 9.61204545,73.3034091 9.74522727,73.4365909 C9.87840909,73.5697727 10.0390909,73.6363636 10.2272727,73.6363636 L12.9545455,73.6363636 C13.1427273,73.6363636 13.3034091,73.5697727 13.4365909,73.4365909 C13.5697727,73.3034091 13.6363636,73.1427273 13.6363636,72.9545455 L13.6363636,70.2272727 C13.6363636,70.0390909 13.5697727,69.8784091 13.4365909,69.7452273 C13.3034091,69.6120455 13.1427273,69.5454545 12.9545455,69.5454545 L12.9545455,69.5454545 Z M10.2272727,60 L12.9545455,60 C13.5190909,60 14.0011364,60.1997727 14.4006818,60.5993182 C14.8002273,60.9988636 15,61.4809091 15,62.0454545 L15,64.7727273 C15,65.3372727 14.8002273,65.8193182 14.4006818,66.2188636 C14.0011364,66.6184091 13.5190909,66.8181818 12.9545455,66.8181818 L10.2272727,66.8181818 C9.66272727,66.8181818 9.18068182,66.6184091 8.78113636,66.2188636 C8.38159091,65.8193182 8.18181818,65.3372727 8.18181818,64.7727273 L8.18181818,62.0454545 C8.18181818,61.4809091 8.38159091,60.9988636 8.78113636,60.5993182 C9.18068182,60.1997727 9.66272727,60 10.2272727,60 L10.2272727,60 Z M12.9545455,61.3636364 L10.2272727,61.3636364 C10.0390909,61.3636364 9.87840909,61.4302273 9.74522727,61.5634091 C9.61204545,61.6965909 9.54545455,61.8572727 9.54545455,62.0454545 L9.54545455,64.7727273 C9.54545455,64.9609091 9.61204545,65.1215909 9.74522727,65.2547727 C9.87840909,65.3879545 10.0390909,65.4545455 10.2272727,65.4545455 L12.9545455,65.4545455 C13.1427273,65.4545455 13.3034091,65.3879545 13.4365909,65.2547727 C13.5697727,65.1215909 13.6363636,64.9609091 13.6363636,64.7727273 L13.6363636,62.0454545 C13.6363636,61.8572727 13.5697727,61.6965909 13.4365909,61.5634091 C13.3034091,61.4302273 13.1427273,61.3636364 12.9545455,61.3636364 L12.9545455,61.3636364 Z" id="Shape"></path>
                <g id="image" transform="translate(0.000000, 90.000000)">
                    <path d="M2.04545455,0 L12.9545455,0 C13.5190909,0 14.0011364,0.199772727 14.4006818,0.599318182 C14.8002273,0.998863636 15,1.48090909 15,2.04545455 L15,12.9545455 C15,13.5190909 14.8002273,14.0011364 14.4006818,14.4006818 C14.0011364,14.8002273 13.5190909,15 12.9545455,15 L2.04545455,15 C1.48090909,15 0.998863636,14.8002273 0.599318182,14.4006818 C0.199772727,14.0011364 0,13.5190909 0,12.9545455 L0,2.04545455 C0,1.48090909 0.199772727,0.998863636 0.599318182,0.599318182 C0.998863636,0.199772727 1.48090909,0 2.04545455,0 L2.04545455,0 Z M13.6363636,11.1913636 L10.2272727,7.78227273 L4.37318182,13.6363636 L12.9545455,13.6363636 C13.1427273,13.6363636 13.3034091,13.5697727 13.4365909,13.4365909 C13.5697727,13.3034091 13.6363636,13.1427273 13.6363636,12.9545455 L13.6363636,11.1913636 L13.6363636,11.1913636 Z M12.9545455,1.36363636 L2.04545455,1.36363636 C1.85727273,1.36363636 1.69659091,1.43022727 1.56340909,1.56340909 C1.43022727,1.69659091 1.36363636,1.85727273 1.36363636,2.04545455 L1.36363636,12.9545455 C1.36363636,13.1427273 1.43022727,13.3034091 1.56340909,13.4365909 C1.69659091,13.5697727 1.85727273,13.6363636 2.04545455,13.6363636 L2.445,13.6363636 L10.2272727,5.85409091 L13.6363636,9.26318182 L13.6363636,2.04545455 C13.6363636,1.85727273 13.5697727,1.69659091 13.4365909,1.56340909 C13.3034091,1.43022727 13.1427273,1.36363636 12.9545455,1.36363636 L12.9545455,1.36363636 Z M4.77272727,2.72727273 C5.33727273,2.72727273 5.81931818,2.92704545 6.21886364,3.32659091 C6.61840909,3.72613636 6.81818182,4.20818182 6.81818182,4.77272727 C6.81818182,5.33727273 6.61840909,5.81931818 6.21886364,6.21886364 C5.81931818,6.61840909 5.33727273,6.81818182 4.77272727,6.81818182 C4.20818182,6.81818182 3.72613636,6.61840909 3.32659091,6.21886364 C2.92704545,5.81931818 2.72727273,5.33727273 2.72727273,4.77272727 C2.72727273,4.20818182 2.92704545,3.72613636 3.32659091,3.32659091 C3.72613636,2.92704545 4.20818182,2.72727273 4.77272727,2.72727273 L4.77272727,2.72727273 Z M4.77272727,4.09090909 C4.58454545,4.09090909 4.42386364,4.1575 4.29068182,4.29068182 C4.1575,4.42386364 4.09090909,4.58454545 4.09090909,4.77272727 C4.09090909,4.96090909 4.1575,5.12159091 4.29068182,5.25477273 C4.42386364,5.38795455 4.58454545,5.45454545 4.77272727,5.45454545 C4.96090909,5.45454545 5.12159091,5.38795455 5.25477273,5.25477273 C5.38795455,5.12159091 5.45454545,4.96090909 5.45454545,4.77272727 C5.45454545,4.58454545 5.38795455,4.42386364 5.25477273,4.29068182 C5.12159091,4.1575 4.96090909,4.09090909 4.77272727,4.09090909 L4.77272727,4.09090909 Z" id="Shape"></path>
                </g>
                <g id="layout">
                    <path d="M2.04545455,0 L12.9545455,0 C13.5190909,0 14.0011364,0.199772727 14.4006818,0.599318182 C14.8002273,0.998863636 15,1.48090909 15,2.04545455 L15,12.9545455 C15,13.5190909 14.8002273,14.0011364 14.4006818,14.4006818 C14.0011364,14.8002273 13.5190909,15 12.9545455,15 L2.04545455,15 C1.48090909,15 0.998863636,14.8002273 0.599318182,14.4006818 C0.199772727,14.0011364 0,13.5190909 0,12.9545455 L0,2.04545455 C0,1.48090909 0.199772727,0.998863636 0.599318182,0.599318182 C0.998863636,0.199772727 1.48090909,0 2.04545455,0 L2.04545455,0 Z M4.77272727,13.6363636 L4.77272727,5.45454545 L1.36363636,5.45454545 L1.36363636,12.9545455 C1.36363636,13.1427273 1.43022727,13.3034091 1.56340909,13.4365909 C1.69659091,13.5697727 1.85727273,13.6363636 2.04545455,13.6363636 L4.77272727,13.6363636 L4.77272727,13.6363636 Z M13.6363636,12.9545455 L13.6363636,5.45454545 L6.13636364,5.45454545 L6.13636364,13.6363636 L12.9545455,13.6363636 C13.1427273,13.6363636 13.3034091,13.5697727 13.4365909,13.4365909 C13.5697727,13.3034091 13.6363636,13.1427273 13.6363636,12.9545455 L13.6363636,12.9545455 Z M12.9545455,1.36363636 L2.04545455,1.36363636 C1.85727273,1.36363636 1.69659091,1.43022727 1.56340909,1.56340909 C1.43022727,1.69659091 1.36363636,1.85727273 1.36363636,2.04545455 L1.36363636,4.09090909 L13.6363636,4.09090909 L13.6363636,2.04545455 C13.6363636,1.85727273 13.5697727,1.69659091 13.4365909,1.56340909 C13.3034091,1.43022727 13.1427273,1.36363636 12.9545455,1.36363636 L12.9545455,1.36363636 Z" id="Shape"></path>
                </g>
                <path d="M5.45429753,125.091405 C5.35612018,125.091405 5.27103313,125.12704 5.19830917,125.199036 C5.12631244,125.271033 5.0906777,125.35612 5.0906777,125.455025 C5.0906777,125.553929 5.12703968,125.639016 5.19830917,125.711013 C5.26957866,125.78301 5.3546657,125.818645 5.45429753,125.818645 C5.55392937,125.818645 5.63901641,125.78301 5.7102859,125.711013 C5.78155538,125.639016 5.81791737,125.553929 5.81791737,125.455025 C5.81791737,125.35612 5.78228262,125.271033 5.7102859,125.199036 C5.63756193,125.12704 5.55247489,125.091405 5.45429753,125.091405 L5.45429753,125.091405 Z M5.45429753,123.636926 C5.95827462,123.636926 6.38734603,123.813645 6.74151175,124.167811 C7.09567747,124.521976 7.27239671,124.951048 7.27239671,125.455025 C7.27239671,125.959002 7.09495023,126.388073 6.74151175,126.742239 C6.38807327,127.096405 5.95900186,127.273124 5.45429753,127.273124 C4.9495932,127.273124 4.52052179,127.096405 4.16708331,126.742239 C3.81364483,126.388073 3.63619835,125.959002 3.63619835,125.455025 C3.63619835,124.951048 3.81291759,124.521976 4.16708331,124.167811 C4.52124903,123.813645 4.95032044,123.636926 5.45429753,123.636926 L5.45429753,123.636926 Z M14.3346212,128.159629 L7.62438071,121.455207 L1.45447934,121.455207 L1.45447934,127.625108 L8.15890187,134.335348 C8.30289532,134.475706 8.47525112,134.545521 8.67596927,134.545521 C8.87668742,134.545521 9.04686151,134.475706 9.18721876,134.335348 L14.3346212,129.187946 C14.4749784,129.047589 14.5447934,128.877415 14.5447934,128.676697 C14.5447934,128.475978 14.4749784,128.303623 14.3346212,128.159629 L14.3346212,128.159629 Z M0,120.000727 L8.2272624,120.000727 L15.3636653,127.131312 C15.787646,127.555293 16,128.068724 16,128.670879 C16,129.277396 15.787646,129.792282 15.3636653,130.216263 L10.2162629,135.363665 C9.79228217,135.788373 9.27885096,136 8.67742375,136 C8.07090587,136 7.55529294,135.788373 7.13131221,135.363665 L0.000727239671,128.227262 L0.000727239671,120 L0,120.000727 Z" id="Page-1"></path>
                <path d="M11.5909091,151 L12.9545455,151 C13.5190909,151 14.0011364,151.199773 14.4006818,151.599318 C14.8002273,151.998864 15,152.480909 15,153.045455 L15,154.409091 C15,154.597273 14.9331818,154.758182 14.8002273,154.891136 C14.6672727,155.024091 14.5056818,155.090909 14.3181818,155.090909 C14.1306818,155.090909 13.9690909,155.024091 13.8361364,154.891136 C13.7031818,154.758182 13.6363636,154.597273 13.6363636,154.409091 L13.6363636,153.045455 C13.6363636,152.857273 13.5695455,152.696364 13.4365909,152.563409 C13.3036364,152.430455 13.1420455,152.363636 12.9545455,152.363636 L11.5909091,152.363636 C11.4034091,152.363636 11.2418182,152.296818 11.1088636,152.163864 C10.9759091,152.030909 10.9090909,151.87 10.9090909,151.681818 C10.9090909,151.493636 10.9759091,151.332727 11.1088636,151.199773 C11.2418182,151.066818 11.4034091,151 11.5909091,151 M6.13636364,151 L8.86363636,151 C9.05113636,151 9.21272727,151.066818 9.34568182,151.199773 C9.47863636,151.332727 9.54545455,151.493636 9.54545455,151.681818 C9.54545455,151.87 9.47863636,152.030909 9.34568182,152.163864 C9.21272727,152.296818 9.05113636,152.363636 8.86363636,152.363636 L6.13636364,152.363636 C5.94818182,152.363636 5.78727273,152.296818 5.65431818,152.163864 C5.52136364,152.030909 5.45454545,151.87 5.45454545,151.681818 C5.45454545,151.493636 5.52136364,151.332727 5.65431818,151.199773 C5.78727273,151.066818 5.94818182,151 6.13636364,151 M14.3181818,156.454545 C14.5056818,156.454545 14.6672727,156.521364 14.8002273,156.654318 C14.9331818,156.787273 15,156.948182 15,157.136364 L15,159.863636 C15,160.051136 14.9331818,160.212727 14.8002273,160.345682 C14.6672727,160.478636 14.5056818,160.545455 14.3181818,160.545455 C14.1306818,160.545455 13.9690909,160.478636 13.8361364,160.345682 C13.7031818,160.212727 13.6363636,160.051136 13.6363636,159.863636 L13.6363636,157.136364 C13.6363636,156.948182 13.7031818,156.787273 13.8361364,156.654318 C13.9690909,156.521364 14.1306818,156.454545 14.3181818,156.454545 M14.3181818,161.909091 C14.5056818,161.909091 14.6672727,161.975909 14.8002273,162.108864 C14.9331818,162.241818 15,162.403409 15,162.590909 L15,163.954545 C15,164.519091 14.8002273,165.001136 14.4006818,165.400682 C14.0011364,165.800227 13.5190909,166 12.9545455,166 L11.5909091,166 C11.4034091,166 11.2418182,165.933182 11.1088636,165.800227 C10.9759091,165.667273 10.9090909,165.505682 10.9090909,165.318182 C10.9090909,165.130682 10.9759091,164.969091 11.1088636,164.836136 C11.2418182,164.703182 11.4034091,164.636364 11.5909091,164.636364 L12.9545455,164.636364 C13.1420455,164.636364 13.3036364,164.569545 13.4365909,164.436591 C13.5695455,164.303636 13.6363636,164.142045 13.6363636,163.954545 L13.6363636,162.590909 C13.6363636,162.403409 13.7031818,162.241818 13.8361364,162.108864 C13.9690909,161.975909 14.1306818,161.909091 14.3181818,161.909091 M2.04545455,151 L3.40909091,151 C3.59727273,151 3.75818182,151.066818 3.89113636,151.199773 C4.02409091,151.332727 4.09090909,151.493636 4.09090909,151.681818 C4.09090909,151.87 4.02409091,152.030909 3.89113636,152.163864 C3.75818182,152.296818 3.59727273,152.363636 3.40909091,152.363636 L2.04545455,152.363636 C1.85727273,152.363636 1.69636364,152.430455 1.56340909,152.563409 C1.43045455,152.696364 1.36363636,152.857273 1.36363636,153.045455 L1.36363636,154.409091 C1.36363636,154.597273 1.29681818,154.758182 1.16386364,154.891136 C1.03090909,155.024091 0.87,155.090909 0.681818182,155.090909 C0.493636364,155.090909 0.332727273,155.024091 0.199772727,154.891136 C0.0668181818,154.758182 0,154.597273 0,154.409091 L0,153.045455 C0,152.480909 0.199772727,151.998864 0.599318182,151.599318 C0.998863636,151.199773 1.48090909,151 2.04545455,151 M6.13636364,164.636364 L8.86363636,164.636364 C9.05113636,164.636364 9.21272727,164.703182 9.34568182,164.836136 C9.47863636,164.969091 9.54545455,165.130682 9.54545455,165.318182 C9.54545455,165.505682 9.47863636,165.667273 9.34568182,165.800227 C9.21272727,165.933182 9.05113636,166 8.86363636,166 L6.13636364,166 C5.94818182,166 5.78727273,165.933182 5.65431818,165.800227 C5.52136364,165.667273 5.45454545,165.505682 5.45454545,165.318182 C5.45454545,165.130682 5.52136364,164.969091 5.65431818,164.836136 C5.78727273,164.703182 5.94818182,164.636364 6.13636364,164.636364 M0.681818182,156.454545 C0.87,156.454545 1.03090909,156.521364 1.16386364,156.654318 C1.29681818,156.787273 1.36363636,156.948182 1.36363636,157.136364 L1.36363636,159.863636 C1.36363636,160.051136 1.29681818,160.212727 1.16386364,160.345682 C1.03090909,160.478636 0.87,160.545455 0.681818182,160.545455 C0.493636364,160.545455 0.332727273,160.478636 0.199772727,160.345682 C0.0668181818,160.212727 0,160.051136 0,159.863636 L0,157.136364 C0,156.948182 0.0668181818,156.787273 0.199772727,156.654318 C0.332727273,156.521364 0.493636364,156.454545 0.681818182,156.454545 M0.681818182,161.909091 C0.87,161.909091 1.03090909,161.975909 1.16386364,162.108864 C1.29681818,162.241818 1.36363636,162.403409 1.36363636,162.590909 L1.36363636,163.954545 C1.36363636,164.142045 1.43045455,164.303636 1.56340909,164.436591 C1.69636364,164.569545 1.85727273,164.636364 2.04545455,164.636364 L3.40909091,164.636364 C3.59727273,164.636364 3.75818182,164.703182 3.89113636,164.836136 C4.02409091,164.969091 4.09090909,165.130682 4.09090909,165.318182 C4.09090909,165.505682 4.02409091,165.667273 3.89113636,165.800227 C3.75818182,165.933182 3.59727273,166 3.40909091,166 L2.04545455,166 C1.48090909,166 0.998863636,165.800227 0.599318182,165.400682 C0.199772727,165.001136 0,164.519091 0,163.954545 L0,162.590909 C0,162.403409 0.0668181818,162.241818 0.199772727,162.108864 C0.332727273,161.975909 0.493636364,161.909091 0.681818182,161.909091 M7.5,155.090909 C7.68818182,155.090909 7.84909091,155.157727 7.98204545,155.290682 C8.115,155.423636 8.18181818,155.584545 8.18181818,155.772727 L8.18181818,157.818182 L10.2272727,157.818182 C10.4147727,157.818182 10.5763636,157.885 10.7093182,158.017955 C10.8422727,158.150909 10.9090909,158.311818 10.9090909,158.5 C10.9090909,158.688182 10.8422727,158.849091 10.7093182,158.982045 C10.5763636,159.115 10.4147727,159.181818 10.2272727,159.181818 L8.18181818,159.181818 L8.18181818,161.227273 C8.18181818,161.414773 8.115,161.576364 7.98204545,161.709318 C7.84909091,161.842273 7.68818182,161.909091 7.5,161.909091 C7.31181818,161.909091 7.15090909,161.842273 7.01795455,161.709318 C6.885,161.576364 6.81818182,161.414773 6.81818182,161.227273 L6.81818182,159.181818 L4.77272727,159.181818 C4.58454545,159.181818 4.42363636,159.115 4.29068182,158.982045 C4.15772727,158.849091 4.09090909,158.688182 4.09090909,158.5 C4.09090909,158.311818 4.15772727,158.150909 4.29068182,158.017955 C4.42363636,157.885 4.58454545,157.818182 4.77272727,157.818182 L6.81818182,157.818182 L6.81818182,155.772727 C6.81818182,155.584545 6.885,155.423636 7.01795455,155.290682 C7.15090909,155.157727 7.31181818,155.090909 7.5,155.090909" id="Page-1"></path>
                <g id="ban" transform="translate(0.000000, 241.000000)">
                    <path d="M8,0 C9.0870303,0 10.1238788,0.211151515 11.1105455,0.633454545 C12.0972121,1.05575758 12.9476364,1.624 13.6618182,2.33818182 C14.376,3.05236364 14.9442424,3.90278788 15.3665455,4.88945455 C15.7888485,5.87612121 16,6.9129697 16,8 C16,9.0870303 15.7888485,10.1238788 15.3665455,11.1105455 C14.9442424,12.0972121 14.376,12.9476364 13.6618182,13.6618182 C12.9476364,14.376 12.0972121,14.9442424 11.1105455,15.3665455 C10.1238788,15.7888485 9.0870303,16 8,16 C6.9129697,16 5.87612121,15.7888485 4.88945455,15.3665455 C3.90278788,14.9442424 3.05236364,14.376 2.33818182,13.6618182 C1.624,12.9476364 1.05575758,12.0972121 0.633454545,11.1105455 C0.211151515,10.1238788 3.87568765e-15,9.0870303 0,8 C-3.87568765e-15,6.9129697 0.211151515,5.87612121 0.633454545,4.88945455 C1.05575758,3.90278788 1.624,3.05236364 2.33818182,2.33818182 C3.05236364,1.624 3.90278788,1.05575758 4.88945455,0.633454545 C5.87612121,0.211151515 6.9129697,3.87568765e-15 8,0 L8,0 Z M12.0850909,13.1134545 L2.88654545,3.91490909 C2.43175758,4.4870303 2.07951515,5.12145455 1.82981818,5.81818182 C1.58012121,6.51490909 1.4550303,7.24218182 1.45454545,8 C1.45454545,8.88630303 1.62787879,9.73381818 1.97454545,10.5425455 C2.32121212,11.3512727 2.78618182,12.0472727 3.36945455,12.6305455 C3.95272727,13.2138182 4.64872727,13.6787879 5.45745455,14.0254545 C6.26618182,14.3721212 7.11369697,14.5454545 8,14.5454545 C8.76121212,14.5454545 9.49042424,14.4213333 10.1876364,14.1730909 C10.8848485,13.9248485 11.5173333,13.5716364 12.0850909,13.1134545 L12.0850909,13.1134545 Z M8,1.45454545 C7.23878788,1.45454545 6.50957576,1.57866667 5.81236364,1.82690909 C5.11515152,2.07515152 4.48266667,2.42836364 3.91490909,2.88654545 L13.1134545,12.0850909 C13.5716364,11.5168485 13.9248485,10.8843636 14.1730909,10.1876364 C14.4213333,9.49090909 14.5454545,8.76169697 14.5454545,8 C14.5454545,7.11369697 14.3721212,6.26618182 14.0254545,5.45745455 C13.6787879,4.64872727 13.2138182,3.95272727 12.6305455,3.36945455 C12.0472727,2.78618182 11.3512727,2.32121212 10.5425455,1.97454545 C9.73381818,1.62787879 8.88630303,1.45454545 8,1.45454545 L8,1.45454545 Z" id="Shape"></path>
                </g>
                <g id="check" transform="translate(0.000000, 183.000000)">
                    <path d="M16.15,1.48294075e-15 C16.3936667,1.48294075e-15 16.59625,0.0793080357 16.75775,0.237924107 C16.91925,0.396540179 17,0.595505952 17,0.834821429 C17,1.06968452 16.9181167,1.2675372 16.75435,1.42837946 L6.55435,11.4462366 C6.39058333,11.6070789 6.18913333,11.6875 5.95,11.6875 C5.71086667,11.6875 5.50941667,11.6070789 5.34565,11.4462366 L0.24565,6.43730804 C0.0818833333,6.27646577 -3.77475828e-15,6.0786131 -3.77475828e-15,5.84375 C-3.77475828e-15,5.60443452 0.08075,5.40546875 0.24225,5.24685268 C0.40375,5.08823661 0.606333333,5.00892857 0.85,5.00892857 C1.08913333,5.00892857 1.29058333,5.0893497 1.45435,5.25019196 L5.95,9.67224107 L15.54565,0.241263393 C15.7094167,0.080421131 15.9108667,0 16.15,0 L16.15,1.48294075e-15 Z" id="Shape"></path>
                </g>
                <g id="cross" transform="translate(0.000000, 211.000000)">
                    <path d="M14.0625,0 C14.33125,0 14.5546875,0.0890625 14.7328125,0.2671875 C14.9109375,0.4453125 15,0.66875 15,0.9375 C15,1.20125 14.9096875,1.4234375 14.7290625,1.6040625 L8.825625,7.5 L14.7290625,13.3959375 C14.9096875,13.5765625 15,13.79875 15,14.0625 C15,14.33125 14.9109375,14.5546875 14.7328125,14.7328125 C14.5546875,14.9109375 14.33125,15 14.0625,15 C13.79875,15 13.5765625,14.9096875 13.3959375,14.7290625 L7.5,8.825625 L1.6040625,14.7290625 C1.4234375,14.9096875 1.20125,15 0.9375,15 C0.66875,15 0.4453125,14.9109375 0.2671875,14.7328125 C0.0890625,14.5546875 0,14.33125 0,14.0625 C0,13.79875 0.0903125,13.5765625 0.2709375,13.3959375 L6.174375,7.5 L0.2709375,1.6040625 C0.0903125,1.4234375 8.32667268e-16,1.20125 8.32667268e-16,0.9375 C8.32667268e-16,0.66875 0.0890625,0.4453125 0.2671875,0.2671875 C0.4453125,0.0890625 0.66875,1.66533454e-15 0.9375,1.66533454e-15 C1.20125,1.66533454e-15 1.4234375,0.0903125 1.6040625,0.2709375 L7.5,6.174375 L13.3959375,0.2709375 C13.5765625,0.0903125 13.79875,2.49800181e-15 14.0625,2.49800181e-15 L14.0625,0 Z" id="Shape"></path>
                </g>
                <g id="ellipsis" transform="translate(0.000000, 302.000000)">
                    <path d="M12.0909091,0 C12.6178182,0 13.0677273,0.186454545 13.4406364,0.559363636 C13.8135455,0.932272727 14,1.38218182 14,1.90909091 C14,2.436 13.8135455,2.88590909 13.4406364,3.25881818 C13.0677273,3.63172727 12.6178182,3.81818182 12.0909091,3.81818182 C11.564,3.81818182 11.1140909,3.63172727 10.7411818,3.25881818 C10.3682727,2.88590909 10.1818182,2.436 10.1818182,1.90909091 C10.1818182,1.38218182 10.3682727,0.932272727 10.7411818,0.559363636 C11.1140909,0.186454545 11.564,0 12.0909091,0 L12.0909091,0 Z M1.90909091,0 C2.436,0 2.88590909,0.186454545 3.25881818,0.559363636 C3.63172727,0.932272727 3.81818182,1.38218182 3.81818182,1.90909091 C3.81818182,2.436 3.63172727,2.88590909 3.25881818,3.25881818 C2.88590909,3.63172727 2.436,3.81818182 1.90909091,3.81818182 C1.38218182,3.81818182 0.932272727,3.63172727 0.559363636,3.25881818 C0.186454545,2.88590909 7.06505561e-16,2.436 0,1.90909091 C-7.77156117e-16,1.38218182 0.186454545,0.932272727 0.559363636,0.559363636 C0.932272727,0.186454545 1.38218182,0 1.90909091,0 L1.90909091,0 Z M1.90909091,1.27272727 C1.73345455,1.27272727 1.58348485,1.33487879 1.45918182,1.45918182 C1.33487879,1.58348485 1.27272727,1.73345455 1.27272727,1.90909091 C1.27272727,2.08472727 1.33487879,2.23469697 1.45918182,2.359 C1.58348485,2.48330303 1.73345455,2.54545455 1.90909091,2.54545455 C2.08472727,2.54545455 2.23469697,2.48330303 2.359,2.359 C2.48330303,2.23469697 2.54545455,2.08472727 2.54545455,1.90909091 C2.54545455,1.73345455 2.48330303,1.58348485 2.359,1.45918182 C2.23469697,1.33487879 2.08472727,1.27272727 1.90909091,1.27272727 L1.90909091,1.27272727 Z M7,0 C7.52690909,0 7.97681818,0.186454545 8.34972727,0.559363636 C8.72263636,0.932272727 8.90909091,1.38218182 8.90909091,1.90909091 C8.90909091,2.436 8.72263636,2.88590909 8.34972727,3.25881818 C7.97681818,3.63172727 7.52690909,3.81818182 7,3.81818182 C6.47309091,3.81818182 6.02318182,3.63172727 5.65027273,3.25881818 C5.27736364,2.88590909 5.09090909,2.436 5.09090909,1.90909091 C5.09090909,1.38218182 5.27736364,0.932272727 5.65027273,0.559363636 C6.02318182,0.186454545 6.47309091,0 7,0 L7,0 Z M7,1.27272727 C6.82436364,1.27272727 6.67439394,1.33487879 6.55009091,1.45918182 C6.42578788,1.58348485 6.36363636,1.73345455 6.36363636,1.90909091 C6.36363636,2.08472727 6.42578788,2.23469697 6.55009091,2.359 C6.67439394,2.48330303 6.82436364,2.54545455 7,2.54545455 C7.17563636,2.54545455 7.32560606,2.48330303 7.44990909,2.359 C7.57421212,2.23469697 7.63636364,2.08472727 7.63636364,1.90909091 C7.63636364,1.73345455 7.57421212,1.58348485 7.44990909,1.45918182 C7.32560606,1.33487879 7.17563636,1.27272727 7,1.27272727 L7,1.27272727 Z M12.0909091,1.27272727 C11.9152727,1.27272727 11.765303,1.33487879 11.641,1.45918182 C11.516697,1.58348485 11.4545455,1.73345455 11.4545455,1.90909091 C11.4545455,2.08472727 11.516697,2.23469697 11.641,2.359 C11.765303,2.48330303 11.9152727,2.54545455 12.0909091,2.54545455 C12.2665455,2.54545455 12.4165152,2.48330303 12.5408182,2.359 C12.6651212,2.23469697 12.7272727,2.08472727 12.7272727,1.90909091 C12.7272727,1.73345455 12.6651212,1.58348485 12.5408182,1.45918182 C12.4165152,1.33487879 12.2665455,1.27272727 12.0909091,1.27272727 L12.0909091,1.27272727 Z" id="Shape"></path>
                </g>
                <path d="M0.75,276 L14.25,276 C14.457,276 14.63375,276.07325 14.78025,276.21975 C14.92675,276.36625 15,276.543 15,276.75 C15,276.957 14.92675,277.13375 14.78025,277.28025 C14.63375,277.42675 14.457,277.5 14.25,277.5 L0.75,277.5 C0.543,277.5 0.36625,277.42675 0.21975,277.28025 C0.07325,277.13375 3.33066907e-16,276.957 0,276.75 C-1.66533454e-16,276.543 0.07325,276.36625 0.21975,276.21975 C0.36625,276.07325 0.543,276 0.75,276 L0.75,276 Z M0.75,285 L14.25,285 C14.457,285 14.63375,285.07325 14.78025,285.21975 C14.92675,285.36625 15,285.543 15,285.75 C15,285.957 14.92675,286.13375 14.78025,286.28025 C14.63375,286.42675 14.457,286.5 14.25,286.5 L0.75,286.5 C0.543,286.5 0.36625,286.42675 0.21975,286.28025 C0.07325,286.13375 3.33066907e-16,285.957 0,285.75 C-1.66533454e-16,285.543 0.07325,285.36625 0.21975,285.21975 C0.36625,285.07325 0.543,285 0.75,285 L0.75,285 Z M0.75,280.5 L14.25,280.5 C14.457,280.5 14.63375,280.57325 14.78025,280.71975 C14.92675,280.86625 15,281.043 15,281.25 C15,281.457 14.92675,281.63375 14.78025,281.78025 C14.63375,281.92675 14.457,282 14.25,282 L0.75,282 C0.543,282 0.36625,281.92675 0.21975,281.78025 C0.07325,281.63375 3.33066907e-16,281.457 0,281.25 C-1.66533454e-16,281.043 0.07325,280.86625 0.21975,280.71975 C0.36625,280.57325 0.543,280.5 0.75,280.5 L0.75,280.5 Z" id="Shape"></path>
            </g>
            <g id="Group" transform="translate(55.000000, 20.000000)" fill="#50E3C2">
                <g id="monitor-copy" transform="translate(0.000000, 30.000000)">
                    <path d="M2.31818182,1.33226763e-15 L14.6818182,1.33226763e-15 C15.3216364,1.33226763e-15 15.8679545,0.21975 16.3207727,0.65925 C16.7735909,1.09875 17,1.629 17,2.25 L17,9.75 C17,10.371 16.7735909,10.90125 16.3207727,11.34075 C15.8679545,11.78025 15.3216364,12 14.6818182,12 L9.27272727,12 L9.27272727,13.5 L11.5909091,13.5 C11.8041818,13.5 11.9862879,13.57325 12.1372273,13.71975 C12.2881667,13.86625 12.3636364,14.043 12.3636364,14.25 C12.3636364,14.457 12.2881667,14.63375 12.1372273,14.78025 C11.9862879,14.92675 11.8041818,15 11.5909091,15 L5.40909091,15 C5.19581818,15 5.01371212,14.92675 4.86277273,14.78025 C4.71183333,14.63375 4.63636364,14.457 4.63636364,14.25 C4.63636364,14.043 4.71183333,13.86625 4.86277273,13.71975 C5.01371212,13.57325 5.19581818,13.5 5.40909091,13.5 L7.72727273,13.5 L7.72727273,12 L2.31818182,12 C1.67836364,12 1.13204545,11.78025 0.679227273,11.34075 C0.226409091,10.90125 0,10.371 0,9.75 L0,2.25 C0,1.629 0.226409091,1.09875 0.679227273,0.65925 C1.13204545,0.21975 1.67836364,0 2.31818182,0 L2.31818182,1.33226763e-15 Z M14.6818182,1.5 L2.31818182,1.5 C2.10490909,1.5 1.92280303,1.57325 1.77186364,1.71975 C1.62092424,1.86625 1.54545455,2.043 1.54545455,2.25 L1.54545455,9.75 C1.54545455,9.957 1.62092424,10.13375 1.77186364,10.28025 C1.92280303,10.42675 2.10490909,10.5 2.31818182,10.5 L14.6818182,10.5 C14.8950909,10.5 15.077197,10.42675 15.2281364,10.28025 C15.3790758,10.13375 15.4545455,9.957 15.4545455,9.75 L15.4545455,2.25 C15.4545455,2.043 15.3790758,1.86625 15.2281364,1.71975 C15.077197,1.57325 14.8950909,1.5 14.6818182,1.5 L14.6818182,1.5 Z" id="Shape"></path>
                </g>
                <path d="M2.04545455,60 L4.77272727,60 C5.33727273,60 5.81931818,60.1997727 6.21886364,60.5993182 C6.61840909,60.9988636 6.81818182,61.4809091 6.81818182,62.0454545 L6.81818182,72.9545455 C6.81818182,73.5190909 6.61840909,74.0011364 6.21886364,74.4006818 C5.81931818,74.8002273 5.33727273,75 4.77272727,75 L2.04545455,75 C1.48090909,75 0.998863636,74.8002273 0.599318182,74.4006818 C0.199772727,74.0011364 0,73.5190909 0,72.9545455 L0,62.0454545 C0,61.4809091 0.199772727,60.9988636 0.599318182,60.5993182 C0.998863636,60.1997727 1.48090909,60 2.04545455,60 L2.04545455,60 Z M4.77272727,61.3636364 L2.04545455,61.3636364 C1.85727273,61.3636364 1.69659091,61.4302273 1.56340909,61.5634091 C1.43022727,61.6965909 1.36363636,61.8572727 1.36363636,62.0454545 L1.36363636,72.9545455 C1.36363636,73.1427273 1.43022727,73.3034091 1.56340909,73.4365909 C1.69659091,73.5697727 1.85727273,73.6363636 2.04545455,73.6363636 L4.77272727,73.6363636 C4.96090909,73.6363636 5.12159091,73.5697727 5.25477273,73.4365909 C5.38795455,73.3034091 5.45454545,73.1427273 5.45454545,72.9545455 L5.45454545,62.0454545 C5.45454545,61.8572727 5.38795455,61.6965909 5.25477273,61.5634091 C5.12159091,61.4302273 4.96090909,61.3636364 4.77272727,61.3636364 L4.77272727,61.3636364 Z M10.2272727,68.1818182 L12.9545455,68.1818182 C13.5190909,68.1818182 14.0011364,68.3815909 14.4006818,68.7811364 C14.8002273,69.1806818 15,69.6627273 15,70.2272727 L15,72.9545455 C15,73.5190909 14.8002273,74.0011364 14.4006818,74.4006818 C14.0011364,74.8002273 13.5190909,75 12.9545455,75 L10.2272727,75 C9.66272727,75 9.18068182,74.8002273 8.78113636,74.4006818 C8.38159091,74.0011364 8.18181818,73.5190909 8.18181818,72.9545455 L8.18181818,70.2272727 C8.18181818,69.6627273 8.38159091,69.1806818 8.78113636,68.7811364 C9.18068182,68.3815909 9.66272727,68.1818182 10.2272727,68.1818182 L10.2272727,68.1818182 Z M12.9545455,69.5454545 L10.2272727,69.5454545 C10.0390909,69.5454545 9.87840909,69.6120455 9.74522727,69.7452273 C9.61204545,69.8784091 9.54545455,70.0390909 9.54545455,70.2272727 L9.54545455,72.9545455 C9.54545455,73.1427273 9.61204545,73.3034091 9.74522727,73.4365909 C9.87840909,73.5697727 10.0390909,73.6363636 10.2272727,73.6363636 L12.9545455,73.6363636 C13.1427273,73.6363636 13.3034091,73.5697727 13.4365909,73.4365909 C13.5697727,73.3034091 13.6363636,73.1427273 13.6363636,72.9545455 L13.6363636,70.2272727 C13.6363636,70.0390909 13.5697727,69.8784091 13.4365909,69.7452273 C13.3034091,69.6120455 13.1427273,69.5454545 12.9545455,69.5454545 L12.9545455,69.5454545 Z M10.2272727,60 L12.9545455,60 C13.5190909,60 14.0011364,60.1997727 14.4006818,60.5993182 C14.8002273,60.9988636 15,61.4809091 15,62.0454545 L15,64.7727273 C15,65.3372727 14.8002273,65.8193182 14.4006818,66.2188636 C14.0011364,66.6184091 13.5190909,66.8181818 12.9545455,66.8181818 L10.2272727,66.8181818 C9.66272727,66.8181818 9.18068182,66.6184091 8.78113636,66.2188636 C8.38159091,65.8193182 8.18181818,65.3372727 8.18181818,64.7727273 L8.18181818,62.0454545 C8.18181818,61.4809091 8.38159091,60.9988636 8.78113636,60.5993182 C9.18068182,60.1997727 9.66272727,60 10.2272727,60 L10.2272727,60 Z M12.9545455,61.3636364 L10.2272727,61.3636364 C10.0390909,61.3636364 9.87840909,61.4302273 9.74522727,61.5634091 C9.61204545,61.6965909 9.54545455,61.8572727 9.54545455,62.0454545 L9.54545455,64.7727273 C9.54545455,64.9609091 9.61204545,65.1215909 9.74522727,65.2547727 C9.87840909,65.3879545 10.0390909,65.4545455 10.2272727,65.4545455 L12.9545455,65.4545455 C13.1427273,65.4545455 13.3034091,65.3879545 13.4365909,65.2547727 C13.5697727,65.1215909 13.6363636,64.9609091 13.6363636,64.7727273 L13.6363636,62.0454545 C13.6363636,61.8572727 13.5697727,61.6965909 13.4365909,61.5634091 C13.3034091,61.4302273 13.1427273,61.3636364 12.9545455,61.3636364 L12.9545455,61.3636364 Z" id="Shape-Copy"></path>
                <g id="image-copy" transform="translate(0.000000, 90.000000)">
                    <path d="M2.04545455,0 L12.9545455,0 C13.5190909,0 14.0011364,0.199772727 14.4006818,0.599318182 C14.8002273,0.998863636 15,1.48090909 15,2.04545455 L15,12.9545455 C15,13.5190909 14.8002273,14.0011364 14.4006818,14.4006818 C14.0011364,14.8002273 13.5190909,15 12.9545455,15 L2.04545455,15 C1.48090909,15 0.998863636,14.8002273 0.599318182,14.4006818 C0.199772727,14.0011364 0,13.5190909 0,12.9545455 L0,2.04545455 C0,1.48090909 0.199772727,0.998863636 0.599318182,0.599318182 C0.998863636,0.199772727 1.48090909,0 2.04545455,0 L2.04545455,0 Z M13.6363636,11.1913636 L10.2272727,7.78227273 L4.37318182,13.6363636 L12.9545455,13.6363636 C13.1427273,13.6363636 13.3034091,13.5697727 13.4365909,13.4365909 C13.5697727,13.3034091 13.6363636,13.1427273 13.6363636,12.9545455 L13.6363636,11.1913636 L13.6363636,11.1913636 Z M12.9545455,1.36363636 L2.04545455,1.36363636 C1.85727273,1.36363636 1.69659091,1.43022727 1.56340909,1.56340909 C1.43022727,1.69659091 1.36363636,1.85727273 1.36363636,2.04545455 L1.36363636,12.9545455 C1.36363636,13.1427273 1.43022727,13.3034091 1.56340909,13.4365909 C1.69659091,13.5697727 1.85727273,13.6363636 2.04545455,13.6363636 L2.445,13.6363636 L10.2272727,5.85409091 L13.6363636,9.26318182 L13.6363636,2.04545455 C13.6363636,1.85727273 13.5697727,1.69659091 13.4365909,1.56340909 C13.3034091,1.43022727 13.1427273,1.36363636 12.9545455,1.36363636 L12.9545455,1.36363636 Z M4.77272727,2.72727273 C5.33727273,2.72727273 5.81931818,2.92704545 6.21886364,3.32659091 C6.61840909,3.72613636 6.81818182,4.20818182 6.81818182,4.77272727 C6.81818182,5.33727273 6.61840909,5.81931818 6.21886364,6.21886364 C5.81931818,6.61840909 5.33727273,6.81818182 4.77272727,6.81818182 C4.20818182,6.81818182 3.72613636,6.61840909 3.32659091,6.21886364 C2.92704545,5.81931818 2.72727273,5.33727273 2.72727273,4.77272727 C2.72727273,4.20818182 2.92704545,3.72613636 3.32659091,3.32659091 C3.72613636,2.92704545 4.20818182,2.72727273 4.77272727,2.72727273 L4.77272727,2.72727273 Z M4.77272727,4.09090909 C4.58454545,4.09090909 4.42386364,4.1575 4.29068182,4.29068182 C4.1575,4.42386364 4.09090909,4.58454545 4.09090909,4.77272727 C4.09090909,4.96090909 4.1575,5.12159091 4.29068182,5.25477273 C4.42386364,5.38795455 4.58454545,5.45454545 4.77272727,5.45454545 C4.96090909,5.45454545 5.12159091,5.38795455 5.25477273,5.25477273 C5.38795455,5.12159091 5.45454545,4.96090909 5.45454545,4.77272727 C5.45454545,4.58454545 5.38795455,4.42386364 5.25477273,4.29068182 C5.12159091,4.1575 4.96090909,4.09090909 4.77272727,4.09090909 L4.77272727,4.09090909 Z" id="Shape"></path>
                </g>
                <g id="layout-copy">
                    <path d="M2.04545455,0 L12.9545455,0 C13.5190909,0 14.0011364,0.199772727 14.4006818,0.599318182 C14.8002273,0.998863636 15,1.48090909 15,2.04545455 L15,12.9545455 C15,13.5190909 14.8002273,14.0011364 14.4006818,14.4006818 C14.0011364,14.8002273 13.5190909,15 12.9545455,15 L2.04545455,15 C1.48090909,15 0.998863636,14.8002273 0.599318182,14.4006818 C0.199772727,14.0011364 0,13.5190909 0,12.9545455 L0,2.04545455 C0,1.48090909 0.199772727,0.998863636 0.599318182,0.599318182 C0.998863636,0.199772727 1.48090909,0 2.04545455,0 L2.04545455,0 Z M4.77272727,13.6363636 L4.77272727,5.45454545 L1.36363636,5.45454545 L1.36363636,12.9545455 C1.36363636,13.1427273 1.43022727,13.3034091 1.56340909,13.4365909 C1.69659091,13.5697727 1.85727273,13.6363636 2.04545455,13.6363636 L4.77272727,13.6363636 L4.77272727,13.6363636 Z M13.6363636,12.9545455 L13.6363636,5.45454545 L6.13636364,5.45454545 L6.13636364,13.6363636 L12.9545455,13.6363636 C13.1427273,13.6363636 13.3034091,13.5697727 13.4365909,13.4365909 C13.5697727,13.3034091 13.6363636,13.1427273 13.6363636,12.9545455 L13.6363636,12.9545455 Z M12.9545455,1.36363636 L2.04545455,1.36363636 C1.85727273,1.36363636 1.69659091,1.43022727 1.56340909,1.56340909 C1.43022727,1.69659091 1.36363636,1.85727273 1.36363636,2.04545455 L1.36363636,4.09090909 L13.6363636,4.09090909 L13.6363636,2.04545455 C13.6363636,1.85727273 13.5697727,1.69659091 13.4365909,1.56340909 C13.3034091,1.43022727 13.1427273,1.36363636 12.9545455,1.36363636 L12.9545455,1.36363636 Z" id="Shape"></path>
                </g>
                <path d="M5.45429753,125.091405 C5.35612018,125.091405 5.27103313,125.12704 5.19830917,125.199036 C5.12631244,125.271033 5.0906777,125.35612 5.0906777,125.455025 C5.0906777,125.553929 5.12703968,125.639016 5.19830917,125.711013 C5.26957866,125.78301 5.3546657,125.818645 5.45429753,125.818645 C5.55392937,125.818645 5.63901641,125.78301 5.7102859,125.711013 C5.78155538,125.639016 5.81791737,125.553929 5.81791737,125.455025 C5.81791737,125.35612 5.78228262,125.271033 5.7102859,125.199036 C5.63756193,125.12704 5.55247489,125.091405 5.45429753,125.091405 L5.45429753,125.091405 Z M5.45429753,123.636926 C5.95827462,123.636926 6.38734603,123.813645 6.74151175,124.167811 C7.09567747,124.521976 7.27239671,124.951048 7.27239671,125.455025 C7.27239671,125.959002 7.09495023,126.388073 6.74151175,126.742239 C6.38807327,127.096405 5.95900186,127.273124 5.45429753,127.273124 C4.9495932,127.273124 4.52052179,127.096405 4.16708331,126.742239 C3.81364483,126.388073 3.63619835,125.959002 3.63619835,125.455025 C3.63619835,124.951048 3.81291759,124.521976 4.16708331,124.167811 C4.52124903,123.813645 4.95032044,123.636926 5.45429753,123.636926 L5.45429753,123.636926 Z M14.3346212,128.159629 L7.62438071,121.455207 L1.45447934,121.455207 L1.45447934,127.625108 L8.15890187,134.335348 C8.30289532,134.475706 8.47525112,134.545521 8.67596927,134.545521 C8.87668742,134.545521 9.04686151,134.475706 9.18721876,134.335348 L14.3346212,129.187946 C14.4749784,129.047589 14.5447934,128.877415 14.5447934,128.676697 C14.5447934,128.475978 14.4749784,128.303623 14.3346212,128.159629 L14.3346212,128.159629 Z M0,120.000727 L8.2272624,120.000727 L15.3636653,127.131312 C15.787646,127.555293 16,128.068724 16,128.670879 C16,129.277396 15.787646,129.792282 15.3636653,130.216263 L10.2162629,135.363665 C9.79228217,135.788373 9.27885096,136 8.67742375,136 C8.07090587,136 7.55529294,135.788373 7.13131221,135.363665 L0.000727239671,128.227262 L0.000727239671,120 L0,120.000727 Z" id="Page-1-Copy"></path>
                <path d="M11.5909091,151 L12.9545455,151 C13.5190909,151 14.0011364,151.199773 14.4006818,151.599318 C14.8002273,151.998864 15,152.480909 15,153.045455 L15,154.409091 C15,154.597273 14.9331818,154.758182 14.8002273,154.891136 C14.6672727,155.024091 14.5056818,155.090909 14.3181818,155.090909 C14.1306818,155.090909 13.9690909,155.024091 13.8361364,154.891136 C13.7031818,154.758182 13.6363636,154.597273 13.6363636,154.409091 L13.6363636,153.045455 C13.6363636,152.857273 13.5695455,152.696364 13.4365909,152.563409 C13.3036364,152.430455 13.1420455,152.363636 12.9545455,152.363636 L11.5909091,152.363636 C11.4034091,152.363636 11.2418182,152.296818 11.1088636,152.163864 C10.9759091,152.030909 10.9090909,151.87 10.9090909,151.681818 C10.9090909,151.493636 10.9759091,151.332727 11.1088636,151.199773 C11.2418182,151.066818 11.4034091,151 11.5909091,151 M6.13636364,151 L8.86363636,151 C9.05113636,151 9.21272727,151.066818 9.34568182,151.199773 C9.47863636,151.332727 9.54545455,151.493636 9.54545455,151.681818 C9.54545455,151.87 9.47863636,152.030909 9.34568182,152.163864 C9.21272727,152.296818 9.05113636,152.363636 8.86363636,152.363636 L6.13636364,152.363636 C5.94818182,152.363636 5.78727273,152.296818 5.65431818,152.163864 C5.52136364,152.030909 5.45454545,151.87 5.45454545,151.681818 C5.45454545,151.493636 5.52136364,151.332727 5.65431818,151.199773 C5.78727273,151.066818 5.94818182,151 6.13636364,151 M14.3181818,156.454545 C14.5056818,156.454545 14.6672727,156.521364 14.8002273,156.654318 C14.9331818,156.787273 15,156.948182 15,157.136364 L15,159.863636 C15,160.051136 14.9331818,160.212727 14.8002273,160.345682 C14.6672727,160.478636 14.5056818,160.545455 14.3181818,160.545455 C14.1306818,160.545455 13.9690909,160.478636 13.8361364,160.345682 C13.7031818,160.212727 13.6363636,160.051136 13.6363636,159.863636 L13.6363636,157.136364 C13.6363636,156.948182 13.7031818,156.787273 13.8361364,156.654318 C13.9690909,156.521364 14.1306818,156.454545 14.3181818,156.454545 M14.3181818,161.909091 C14.5056818,161.909091 14.6672727,161.975909 14.8002273,162.108864 C14.9331818,162.241818 15,162.403409 15,162.590909 L15,163.954545 C15,164.519091 14.8002273,165.001136 14.4006818,165.400682 C14.0011364,165.800227 13.5190909,166 12.9545455,166 L11.5909091,166 C11.4034091,166 11.2418182,165.933182 11.1088636,165.800227 C10.9759091,165.667273 10.9090909,165.505682 10.9090909,165.318182 C10.9090909,165.130682 10.9759091,164.969091 11.1088636,164.836136 C11.2418182,164.703182 11.4034091,164.636364 11.5909091,164.636364 L12.9545455,164.636364 C13.1420455,164.636364 13.3036364,164.569545 13.4365909,164.436591 C13.5695455,164.303636 13.6363636,164.142045 13.6363636,163.954545 L13.6363636,162.590909 C13.6363636,162.403409 13.7031818,162.241818 13.8361364,162.108864 C13.9690909,161.975909 14.1306818,161.909091 14.3181818,161.909091 M2.04545455,151 L3.40909091,151 C3.59727273,151 3.75818182,151.066818 3.89113636,151.199773 C4.02409091,151.332727 4.09090909,151.493636 4.09090909,151.681818 C4.09090909,151.87 4.02409091,152.030909 3.89113636,152.163864 C3.75818182,152.296818 3.59727273,152.363636 3.40909091,152.363636 L2.04545455,152.363636 C1.85727273,152.363636 1.69636364,152.430455 1.56340909,152.563409 C1.43045455,152.696364 1.36363636,152.857273 1.36363636,153.045455 L1.36363636,154.409091 C1.36363636,154.597273 1.29681818,154.758182 1.16386364,154.891136 C1.03090909,155.024091 0.87,155.090909 0.681818182,155.090909 C0.493636364,155.090909 0.332727273,155.024091 0.199772727,154.891136 C0.0668181818,154.758182 0,154.597273 0,154.409091 L0,153.045455 C0,152.480909 0.199772727,151.998864 0.599318182,151.599318 C0.998863636,151.199773 1.48090909,151 2.04545455,151 M6.13636364,164.636364 L8.86363636,164.636364 C9.05113636,164.636364 9.21272727,164.703182 9.34568182,164.836136 C9.47863636,164.969091 9.54545455,165.130682 9.54545455,165.318182 C9.54545455,165.505682 9.47863636,165.667273 9.34568182,165.800227 C9.21272727,165.933182 9.05113636,166 8.86363636,166 L6.13636364,166 C5.94818182,166 5.78727273,165.933182 5.65431818,165.800227 C5.52136364,165.667273 5.45454545,165.505682 5.45454545,165.318182 C5.45454545,165.130682 5.52136364,164.969091 5.65431818,164.836136 C5.78727273,164.703182 5.94818182,164.636364 6.13636364,164.636364 M0.681818182,156.454545 C0.87,156.454545 1.03090909,156.521364 1.16386364,156.654318 C1.29681818,156.787273 1.36363636,156.948182 1.36363636,157.136364 L1.36363636,159.863636 C1.36363636,160.051136 1.29681818,160.212727 1.16386364,160.345682 C1.03090909,160.478636 0.87,160.545455 0.681818182,160.545455 C0.493636364,160.545455 0.332727273,160.478636 0.199772727,160.345682 C0.0668181818,160.212727 0,160.051136 0,159.863636 L0,157.136364 C0,156.948182 0.0668181818,156.787273 0.199772727,156.654318 C0.332727273,156.521364 0.493636364,156.454545 0.681818182,156.454545 M0.681818182,161.909091 C0.87,161.909091 1.03090909,161.975909 1.16386364,162.108864 C1.29681818,162.241818 1.36363636,162.403409 1.36363636,162.590909 L1.36363636,163.954545 C1.36363636,164.142045 1.43045455,164.303636 1.56340909,164.436591 C1.69636364,164.569545 1.85727273,164.636364 2.04545455,164.636364 L3.40909091,164.636364 C3.59727273,164.636364 3.75818182,164.703182 3.89113636,164.836136 C4.02409091,164.969091 4.09090909,165.130682 4.09090909,165.318182 C4.09090909,165.505682 4.02409091,165.667273 3.89113636,165.800227 C3.75818182,165.933182 3.59727273,166 3.40909091,166 L2.04545455,166 C1.48090909,166 0.998863636,165.800227 0.599318182,165.400682 C0.199772727,165.001136 0,164.519091 0,163.954545 L0,162.590909 C0,162.403409 0.0668181818,162.241818 0.199772727,162.108864 C0.332727273,161.975909 0.493636364,161.909091 0.681818182,161.909091 M7.5,155.090909 C7.68818182,155.090909 7.84909091,155.157727 7.98204545,155.290682 C8.115,155.423636 8.18181818,155.584545 8.18181818,155.772727 L8.18181818,157.818182 L10.2272727,157.818182 C10.4147727,157.818182 10.5763636,157.885 10.7093182,158.017955 C10.8422727,158.150909 10.9090909,158.311818 10.9090909,158.5 C10.9090909,158.688182 10.8422727,158.849091 10.7093182,158.982045 C10.5763636,159.115 10.4147727,159.181818 10.2272727,159.181818 L8.18181818,159.181818 L8.18181818,161.227273 C8.18181818,161.414773 8.115,161.576364 7.98204545,161.709318 C7.84909091,161.842273 7.68818182,161.909091 7.5,161.909091 C7.31181818,161.909091 7.15090909,161.842273 7.01795455,161.709318 C6.885,161.576364 6.81818182,161.414773 6.81818182,161.227273 L6.81818182,159.181818 L4.77272727,159.181818 C4.58454545,159.181818 4.42363636,159.115 4.29068182,158.982045 C4.15772727,158.849091 4.09090909,158.688182 4.09090909,158.5 C4.09090909,158.311818 4.15772727,158.150909 4.29068182,158.017955 C4.42363636,157.885 4.58454545,157.818182 4.77272727,157.818182 L6.81818182,157.818182 L6.81818182,155.772727 C6.81818182,155.584545 6.885,155.423636 7.01795455,155.290682 C7.15090909,155.157727 7.31181818,155.090909 7.5,155.090909" id="Page-1-Copy-2"></path>
                <path d="M8,241 C9.0870303,241 10.1238788,241.211152 11.1105455,241.633455 C12.0972121,242.055758 12.9476364,242.624 13.6618182,243.338182 C14.376,244.052364 14.9442424,244.902788 15.3665455,245.889455 C15.7888485,246.876121 16,247.91297 16,249 C16,250.08703 15.7888485,251.123879 15.3665455,252.110545 C14.9442424,253.097212 14.376,253.947636 13.6618182,254.661818 C12.9476364,255.376 12.0972121,255.944242 11.1105455,256.366545 C10.1238788,256.788848 9.0870303,257 8,257 C6.9129697,257 5.87612121,256.788848 4.88945455,256.366545 C3.90278788,255.944242 3.05236364,255.376 2.33818182,254.661818 C1.624,253.947636 1.05575758,253.097212 0.633454545,252.110545 C0.211151515,251.123879 3.87568765e-15,250.08703 0,249 C-3.87568765e-15,247.91297 0.211151515,246.876121 0.633454545,245.889455 C1.05575758,244.902788 1.624,244.052364 2.33818182,243.338182 C3.05236364,242.624 3.90278788,242.055758 4.88945455,241.633455 C5.87612121,241.211152 6.9129697,241 8,241 L8,241 Z M12.0850909,254.113455 L2.88654545,244.914909 C2.43175758,245.48703 2.07951515,246.121455 1.82981818,246.818182 C1.58012121,247.514909 1.4550303,248.242182 1.45454545,249 C1.45454545,249.886303 1.62787879,250.733818 1.97454545,251.542545 C2.32121212,252.351273 2.78618182,253.047273 3.36945455,253.630545 C3.95272727,254.213818 4.64872727,254.678788 5.45745455,255.025455 C6.26618182,255.372121 7.11369697,255.545455 8,255.545455 C8.76121212,255.545455 9.49042424,255.421333 10.1876364,255.173091 C10.8848485,254.924848 11.5173333,254.571636 12.0850909,254.113455 L12.0850909,254.113455 Z M8,242.454545 C7.23878788,242.454545 6.50957576,242.578667 5.81236364,242.826909 C5.11515152,243.075152 4.48266667,243.428364 3.91490909,243.886545 L13.1134545,253.085091 C13.5716364,252.516848 13.9248485,251.884364 14.1730909,251.187636 C14.4213333,250.490909 14.5454545,249.761697 14.5454545,249 C14.5454545,248.113697 14.3721212,247.266182 14.0254545,246.457455 C13.6787879,245.648727 13.2138182,244.952727 12.6305455,244.369455 C12.0472727,243.786182 11.3512727,243.321212 10.5425455,242.974545 C9.73381818,242.627879 8.88630303,242.454545 8,242.454545 L8,242.454545 Z" id="Shape"></path>
                <path d="M16.15,183 C16.3936667,183 16.59625,183.079308 16.75775,183.237924 C16.91925,183.39654 17,183.595506 17,183.834821 C17,184.069685 16.9181167,184.267537 16.75435,184.428379 L6.55435,194.446237 C6.39058333,194.607079 6.18913333,194.6875 5.95,194.6875 C5.71086667,194.6875 5.50941667,194.607079 5.34565,194.446237 L0.24565,189.437308 C0.0818833333,189.276466 0,189.078613 0,188.84375 C0,188.604435 0.08075,188.405469 0.24225,188.246853 C0.40375,188.088237 0.606333333,188.008929 0.85,188.008929 C1.08913333,188.008929 1.29058333,188.08935 1.45435,188.250192 L5.95,192.672241 L15.54565,183.241263 C15.7094167,183.080421 15.9108667,183 16.15,183 L16.15,183 Z" id="Shape"></path>
                <path d="M14.0625,211 C14.33125,211 14.5546875,211.089063 14.7328125,211.267188 C14.9109375,211.445312 15,211.66875 15,211.9375 C15,212.20125 14.9096875,212.423438 14.7290625,212.604062 L8.825625,218.5 L14.7290625,224.395938 C14.9096875,224.576562 15,224.79875 15,225.0625 C15,225.33125 14.9109375,225.554688 14.7328125,225.732812 C14.5546875,225.910937 14.33125,226 14.0625,226 C13.79875,226 13.5765625,225.909687 13.3959375,225.729062 L7.5,219.825625 L1.6040625,225.729062 C1.4234375,225.909687 1.20125,226 0.9375,226 C0.66875,226 0.4453125,225.910937 0.2671875,225.732812 C0.0890625,225.554688 0,225.33125 0,225.0625 C0,224.79875 0.0903125,224.576562 0.2709375,224.395938 L6.174375,218.5 L0.2709375,212.604062 C0.0903125,212.423438 8.32667268e-16,212.20125 8.32667268e-16,211.9375 C8.32667268e-16,211.66875 0.0890625,211.445312 0.2671875,211.267188 C0.4453125,211.089063 0.66875,211 0.9375,211 C1.20125,211 1.4234375,211.090313 1.6040625,211.270938 L7.5,217.174375 L13.3959375,211.270938 C13.5765625,211.090313 13.79875,211 14.0625,211 L14.0625,211 Z" id="Shape"></path>
                <path d="M12.0909091,302 C12.6178182,302 13.0677273,302.186455 13.4406364,302.559364 C13.8135455,302.932273 14,303.382182 14,303.909091 C14,304.436 13.8135455,304.885909 13.4406364,305.258818 C13.0677273,305.631727 12.6178182,305.818182 12.0909091,305.818182 C11.564,305.818182 11.1140909,305.631727 10.7411818,305.258818 C10.3682727,304.885909 10.1818182,304.436 10.1818182,303.909091 C10.1818182,303.382182 10.3682727,302.932273 10.7411818,302.559364 C11.1140909,302.186455 11.564,302 12.0909091,302 L12.0909091,302 Z M1.90909091,302 C2.436,302 2.88590909,302.186455 3.25881818,302.559364 C3.63172727,302.932273 3.81818182,303.382182 3.81818182,303.909091 C3.81818182,304.436 3.63172727,304.885909 3.25881818,305.258818 C2.88590909,305.631727 2.436,305.818182 1.90909091,305.818182 C1.38218182,305.818182 0.932272727,305.631727 0.559363636,305.258818 C0.186454545,304.885909 7.06505561e-16,304.436 0,303.909091 C-7.77156117e-16,303.382182 0.186454545,302.932273 0.559363636,302.559364 C0.932272727,302.186455 1.38218182,302 1.90909091,302 L1.90909091,302 Z M1.90909091,303.272727 C1.73345455,303.272727 1.58348485,303.334879 1.45918182,303.459182 C1.33487879,303.583485 1.27272727,303.733455 1.27272727,303.909091 C1.27272727,304.084727 1.33487879,304.234697 1.45918182,304.359 C1.58348485,304.483303 1.73345455,304.545455 1.90909091,304.545455 C2.08472727,304.545455 2.23469697,304.483303 2.359,304.359 C2.48330303,304.234697 2.54545455,304.084727 2.54545455,303.909091 C2.54545455,303.733455 2.48330303,303.583485 2.359,303.459182 C2.23469697,303.334879 2.08472727,303.272727 1.90909091,303.272727 L1.90909091,303.272727 Z M7,302 C7.52690909,302 7.97681818,302.186455 8.34972727,302.559364 C8.72263636,302.932273 8.90909091,303.382182 8.90909091,303.909091 C8.90909091,304.436 8.72263636,304.885909 8.34972727,305.258818 C7.97681818,305.631727 7.52690909,305.818182 7,305.818182 C6.47309091,305.818182 6.02318182,305.631727 5.65027273,305.258818 C5.27736364,304.885909 5.09090909,304.436 5.09090909,303.909091 C5.09090909,303.382182 5.27736364,302.932273 5.65027273,302.559364 C6.02318182,302.186455 6.47309091,302 7,302 L7,302 Z M7,303.272727 C6.82436364,303.272727 6.67439394,303.334879 6.55009091,303.459182 C6.42578788,303.583485 6.36363636,303.733455 6.36363636,303.909091 C6.36363636,304.084727 6.42578788,304.234697 6.55009091,304.359 C6.67439394,304.483303 6.82436364,304.545455 7,304.545455 C7.17563636,304.545455 7.32560606,304.483303 7.44990909,304.359 C7.57421212,304.234697 7.63636364,304.084727 7.63636364,303.909091 C7.63636364,303.733455 7.57421212,303.583485 7.44990909,303.459182 C7.32560606,303.334879 7.17563636,303.272727 7,303.272727 L7,303.272727 Z M12.0909091,303.272727 C11.9152727,303.272727 11.765303,303.334879 11.641,303.459182 C11.516697,303.583485 11.4545455,303.733455 11.4545455,303.909091 C11.4545455,304.084727 11.516697,304.234697 11.641,304.359 C11.765303,304.483303 11.9152727,304.545455 12.0909091,304.545455 C12.2665455,304.545455 12.4165152,304.483303 12.5408182,304.359 C12.6651212,304.234697 12.7272727,304.084727 12.7272727,303.909091 C12.7272727,303.733455 12.6651212,303.583485 12.5408182,303.459182 C12.4165152,303.334879 12.2665455,303.272727 12.0909091,303.272727 L12.0909091,303.272727 Z" id="Shape"></path>
                <path d="M0.75,276 L14.25,276 C14.457,276 14.63375,276.07325 14.78025,276.21975 C14.92675,276.36625 15,276.543 15,276.75 C15,276.957 14.92675,277.13375 14.78025,277.28025 C14.63375,277.42675 14.457,277.5 14.25,277.5 L0.75,277.5 C0.543,277.5 0.36625,277.42675 0.21975,277.28025 C0.07325,277.13375 3.33066907e-16,276.957 0,276.75 C-1.66533454e-16,276.543 0.07325,276.36625 0.21975,276.21975 C0.36625,276.07325 0.543,276 0.75,276 L0.75,276 Z M0.75,285 L14.25,285 C14.457,285 14.63375,285.07325 14.78025,285.21975 C14.92675,285.36625 15,285.543 15,285.75 C15,285.957 14.92675,286.13375 14.78025,286.28025 C14.63375,286.42675 14.457,286.5 14.25,286.5 L0.75,286.5 C0.543,286.5 0.36625,286.42675 0.21975,286.28025 C0.07325,286.13375 3.33066907e-16,285.957 0,285.75 C-1.66533454e-16,285.543 0.07325,285.36625 0.21975,285.21975 C0.36625,285.07325 0.543,285 0.75,285 L0.75,285 Z M0.75,280.5 L14.25,280.5 C14.457,280.5 14.63375,280.57325 14.78025,280.71975 C14.92675,280.86625 15,281.043 15,281.25 C15,281.457 14.92675,281.63375 14.78025,281.78025 C14.63375,281.92675 14.457,282 14.25,282 L0.75,282 C0.543,282 0.36625,281.92675 0.21975,281.78025 C0.07325,281.63375 3.33066907e-16,281.457 0,281.25 C-1.66533454e-16,281.043 0.07325,280.86625 0.21975,280.71975 C0.36625,280.57325 0.543,280.5 0.75,280.5 L0.75,280.5 Z" id="Shape"></path>
            </g>
        </g>
    </g>
</svg>